<svg version="1.1" id="Layer_1" xmlns:x="ns_extend;" xmlns:i="ns_ai;" xmlns:graph="ns_graphs;" xmlns="http://www.w3.org/2000/svg" xmlns:xlink="http://www.w3.org/1999/xlink" x="0px" y="0px" viewBox="0 0 298.3 70" style="enable-background:new 0 0 298.3 70;" xml:space="preserve">
 <style type="text/css">
  .st0{fill-rule:evenodd;clip-rule:evenodd;fill:#005127;}
	.st1{fill-rule:evenodd;clip-rule:evenodd;fill:#D8232A;}
 </style>
 <metadata>
  <sfw xmlns="ns_sfw;">
   <slices>
   </slices>
   <sliceSourceBounds bottomLeftOrigin="true" height="70" width="298.3" x="-74.2" y="-16.6">
   </sliceSourceBounds>
  </sfw>
 </metadata>
 <g>
  <path class="st0" d="M298.3,32.6V34c0,0-1.6,0.6-1.6,2.6V68c0,1.2-1,2-2,2h-6.2L275,48.5c0,0,0.2,1.8,0.2,4V70h-7.6V32.6h5
		c2.6,0,4.4,1,5.6,3l11.3,17.9c0,0-0.4-1.2-0.4-4V32.6H298.3z M153.5,32.6V68c0,1.2-1,2-2,2h-6.4l-13.5-21.5c0,0,0.2,1.8,0.2,4V70
		h-7.6V32.6h5c2.6,0,4.4,1,5.6,3l11.3,17.9c0,0-0.4-1.2-0.4-4V32.6C146,32.6,153.5,32.6,153.5,32.6z M60.1,32.6H49.9v14.3h-8.7V32.6
		H29.4V34c0,0,1.6,0.6,1.6,2.6V70h10.1V53.9h8.7V70h10.1V32.6L60.1,32.6z M92.9,32.6H70.4v34c0,2,1.8,3.4,3.8,3.4h18.7
		c1.2,0,2-1,2-2v-4.8H81.9c-0.8,0-1.6-0.6-1.6-1.6v-8h11.5v-6.8H80.3v-7.6h14.3v-4.8C94.9,33.6,93.9,32.6,92.9,32.6z M114.2,32.6
		H104V68c0,1.2,1,2,2,2h8.2V32.6L114.2,32.6z M257.1,32.6h-22.5v34c0,1.8,1.8,3.4,3.8,3.4h18.7c1.2,0,2-1,2-2v-4.8h-12.9
		c-0.8,0-1.6-0.6-1.6-1.6v-8h11.5v-6.8h-11.5v-7.6h14.3v-4.8C259.1,33.6,258.1,32.6,257.1,32.6z M186.1,32.6h-22.5v34
		c0,1.8,1.8,3.4,3.8,3.4h18.7c1.2,0,2-1,2-2v-4.8h-12.9c-0.8,0-1.6-0.6-1.6-1.6v-8h11.5v-6.8h-11.5v-7.6h14.3v-4.8
		C188.1,33.6,187.1,32.6,186.1,32.6L186.1,32.6z M228.7,32.6h-7.4c-1.8,0-3.2,0.4-4.6,2l-10.3,11.7V32.4h-10.1v35.4c0,1.2,1,2,2,2
		h8.2V52.9l8.9,13.9c1.4,2,2.6,3.2,5.8,3.2h8.4l-14.1-22.1L228.7,32.6L228.7,32.6z">
  </path>
  <path class="st1" d="M10,46.5c-0.2,0.2-0.6,0.2-0.8-0.2c-0.2-0.2-0.2-0.4,0-0.6c0.2-0.8,5.4-16.9,5.4-16.9L0.2,18.5
		c-0.4-0.4-0.2-1.2,0.4-1.2c0.8,0,17.5,0,17.5,0s5.2-16.1,5.4-16.9C23.7,0.2,23.9,0,24.3,0c0.2,0,0.4,0.2,0.4,0.4
		C24.9,1.2,30,17.3,30,17.3s16.5,0,17.5,0c0.6,0,0.8,0.8,0.4,1.2l-8.4,6.2h-9.9l-3-9.5l-3,9.5h-9.9l8.2,6l-3,9.5L10,46.5">
  </path>
 </g>
</svg>