<?xml version="1.0" encoding="UTF-8" standalone="no"?>
<svg
   xmlns:dc="http://purl.org/dc/elements/1.1/"
   xmlns:cc="http://creativecommons.org/ns#"
   xmlns:rdf="http://www.w3.org/1999/02/22-rdf-syntax-ns#"
   xmlns:svg="http://www.w3.org/2000/svg"
   xmlns="http://www.w3.org/2000/svg"
   version="1.1"
   id="svg2"
   xml:space="preserve"
   width="502"
   height="150.64545"
   viewBox="0 0 502 150.64545"><metadata
     id="metadata8"><rdf:RDF><cc:Work
         rdf:about=""><dc:format>image/svg+xml</dc:format><dc:type
           rdf:resource="http://purl.org/dc/dcmitype/StillImage" /><dc:title></dc:title></cc:Work></rdf:RDF></metadata><defs
     id="defs6"><clipPath
       clipPathUnits="userSpaceOnUse"
       id="clipPath18"><path
         d="m 0,148.645 500,0 L 500,0 0,0 Z"
         id="path16" /></clipPath></defs><g
     id="g10"
     transform="matrix(1.0204098,0,0,-1.0204098,-4.1025592,151.16218)"><g
       id="g12"><g
         id="g14"
         clip-path="url(#clipPath18)"><g
           id="g20"
           transform="translate(78.0535,147.1587)"><path
             d="m 0,0 c -4.063,-10.347 -8.4,-20.731 -12.869,-31.186 l -6.046,-13.86 -6.117,13.86 C -29.644,-20.731 -34.065,-10.347 -38.211,0 l -33.839,0 0,-2.712 c 3.752,0 6.835,-3.131 6.835,-6.99 -0.55,-7.145 -1.147,-14.303 -1.876,-21.484 l -2.246,-21.818 c -1.076,-10.443 -2.295,-20.85 -3.716,-31.185 l 10.813,0 c 0.669,10.335 1.505,20.742 2.557,31.185 l 3.334,32.895 c 4.803,-10.001 9.403,-20.062 13.86,-30.147 l 1.231,-2.748 c 4.624,-10.443 9.021,-20.85 13.191,-31.185 l 3.274,0 c 4.086,10.335 8.412,20.742 12.904,31.185 l 1.948,4.481 c 4.361,10.085 8.901,20.145 13.585,30.134 l 3.525,-34.615 c 1.052,-10.443 1.924,-20.85 2.557,-31.185 l 24.877,0 c -1.434,10.335 -2.665,20.742 -3.716,31.185 l -2.222,21.818 C 27.625,-20.731 26.729,-10.347 26.12,0 Z"
             style="fill:#183181;fill-opacity:1;fill-rule:nonzero;stroke:none"
             id="path22" /></g><g
           id="g24"
           transform="translate(189.6398,71.3369)"><path
             d="m 0,0 c 2.712,5.162 5.64,10.383 8.746,15.605 l 30.218,50.291 0,2.127 -66.493,0 0,-15.473 2.628,0 c 0,3.728 2.868,6.775 6.452,7.002 2.079,0.071 4.147,0.107 6.19,0.107 l 21.459,0 C 6.536,54.605 3.692,49.503 0.621,44.401 l -30.373,-50.65 0,-2.115 71.715,0 0,8.985 C 36.921,0.215 31.807,0 26.717,0 Z"
             style="fill:#183181;fill-opacity:1;fill-rule:nonzero;stroke:none"
             id="path26" /></g><g
           id="g28"
           transform="translate(312.5677,62.9704)"><path
             d="M 0,0 C 0.215,0.012 0.43,0.036 0.633,0.048 0.239,5.21 0,10.383 0,15.593 l 0,18.926 29.692,0 0,-18.926 C 29.692,10.383 29.513,5.162 29.119,0 L 51.988,0 C 51.57,5.162 51.379,10.383 51.379,15.593 l 0,45.189 c 0,5.246 0.191,10.431 0.609,15.617 l -29.154,0 0,-2.414 0.657,0 c 3.25,0 5.867,-2.568 6.094,-5.819 0.071,-2.449 0.107,-4.91 0.107,-7.384 l 0,-17.887 -29.692,0 0,17.887 c 0,5.246 0.191,10.431 0.609,15.617 l -29.142,0 0,-2.414 0.633,0 c 3.238,0 5.867,-2.545 6.094,-5.783 0.084,-2.473 0.131,-4.934 0.131,-7.42 l 0,-52.896 c -2.999,-0.382 -6.082,-0.562 -9.2,-0.562 -3.358,0 -6.667,0.263 -9.893,0.789 -9.153,1.745 -10.611,10.336 -10.611,15.689 l 0,37.422 c 0,5.079 0.227,10.133 0.61,15.175 l -29.143,0 0,-2.414 0.621,0 c 3.25,0 5.855,-2.545 6.082,-5.771 0.084,-2.485 0.132,-4.946 0.132,-7.432 l 0,-33.36 c 0,-7.504 2.377,-24.088 22.738,-27.099 6.356,-0.873 12.856,-1.374 19.464,-1.374 10.371,0 20.671,0.37 30.875,1.051"
             style="fill:#183181;fill-opacity:1;fill-rule:nonzero;stroke:none"
             id="path30" /></g><g
           id="g32"
           transform="translate(462.4467,101.1617)"><path
             d="m 0,0 0,0 c 0,-26.024 -22.499,-39.239 -44.664,-39.239 -22.164,0 -44.616,13.215 -44.616,39.239 0,26.036 22.452,39.251 44.616,39.251 C -22.499,39.251 0,26.036 0,0 m -21.77,0 c -0.024,14.183 -5.951,30.875 -22.894,30.875 -16.919,0 -22.869,-16.692 -22.869,-30.875 0,-14.171 5.95,-30.863 22.869,-30.863 16.943,0 22.87,16.692 22.894,30.863"
             style="fill:#183181;fill-opacity:1;fill-rule:nonzero;stroke:none"
             id="path34" /></g><g
           id="g36"
           transform="translate(149.5464,123.7515)"><path
             d="m 0,0 c 0,5.245 0.191,10.431 0.633,15.617 l -29.919,0 0,-2.713 0.621,0 c 3.872,0 6.895,-3.13 6.895,-7.025 0.059,-1.936 0.083,-3.896 0.083,-5.879 l 0,-45.189 c 0,-5.21 -0.203,-10.432 -0.549,-15.593 l 22.869,0 C 0.191,-55.621 0,-50.399 0,-45.189 Z"
             style="fill:#183181;fill-opacity:1;fill-rule:nonzero;stroke:none"
             id="path38" /></g><g
           id="g40"
           transform="translate(46.6072,21.0108)"><path
             d="m 0,0 c 60.245,13.502 122.855,20.635 187.138,20.635 90.75,0 178.32,-13.609 260.813,-38.916 0.311,-0.096 0.49,-0.383 0.43,-0.729 -0.071,-0.323 -0.418,-0.574 -0.74,-0.502 C 362.866,-5.52 276.035,2.461 187.58,4.003 124.396,5.114 61.965,2.88 0.406,-2.449 -0.215,-2.509 -0.765,-2.115 -0.932,-1.506 -1.087,-0.836 -0.669,-0.155 0,0"
             style="fill:#ed1a3a;fill-opacity:1;fill-rule:nonzero;stroke:none"
             id="path42" /></g></g></g></g></svg>