<svg version="1.1" id="Layer_1" xmlns:x="ns_extend;" xmlns:i="ns_ai;" xmlns:graph="ns_graphs;" xmlns="http://www.w3.org/2000/svg" xmlns:xlink="http://www.w3.org/1999/xlink" x="0px" y="0px" viewBox="0 0 307.2 100" style="enable-background:new 0 0 307.2 100;" xml:space="preserve">
 <style type="text/css">
  .st0{fill:#326295;}
 </style>
 <metadata>
  <sfw xmlns="ns_sfw;">
   <slices>
   </slices>
   <sliceSourceBounds bottomLeftOrigin="true" height="100" width="307.2" x="-62.2" y="185.7">
   </sliceSourceBounds>
  </sfw>
 </metadata>
 <g>
  <path class="st0" d="M0,0.1V100h31.1V64h21.6L61.1,42h-30V21.8h36.5l8-21.7H0z M85.1,0.1L85,100h30.8V0.1H85.1z M236.4,67.4
		l11.9-41.6l12.3,41.6L236.4,67.4L236.4,67.4z M264.7,0.1h-31.9L197.4,100h29.7l3.8-13.4h34.6l4,13.4h30.6L264.7,0.1L264.7,0.1z
		 M136.9,0.1V100h31.1V64h21.6l8.5-21.9h-30.1V21.8h36.5l8.1-21.7H136.9z M293.6,10.7h2.2c0.3,0,0.7,0,1-0.1c0.3,0,0.6-0.2,0.8-0.3
		c0.2-0.1,0.4-0.3,0.6-0.6c0.2-0.3,0.3-0.7,0.2-1c0-0.3-0.1-0.7-0.2-0.9c-0.2-0.3-0.3-0.4-0.6-0.5c-0.2-0.2-0.5-0.3-0.8-0.3
		c-0.3,0-0.6-0.1-0.9-0.1h-2.1L293.6,10.7L293.6,10.7z M291.1,5.1h4.9c1.6,0,2.8,0.3,3.6,0.8c0.8,0.6,1.2,1.6,1.2,3
		c0,1.1-0.3,1.9-0.9,2.5c-0.6,0.6-1.4,0.9-2.5,1l3.5,5.8h-2.5l-3.4-5.7h-1.4v5.7h-2.5V5.1z M295.6,21.1c1.2,0,2.3-0.3,3.4-0.7
		c1.1-0.5,2-1.1,2.7-1.9c0.7-0.8,1.4-1.9,1.9-2.9c0.4-1.2,0.7-2.4,0.7-3.8c0-1.3-0.2-2.6-0.7-3.8c-0.5-1.2-1.1-2.1-1.9-2.9
		c-0.8-0.8-1.7-1.5-2.7-1.9c-1.1-0.5-2.2-0.7-3.4-0.7c-1.3,0-2.3,0.3-3.4,0.7c-1.1,0.5-2,1.1-2.7,1.9c-0.7,0.8-1.4,1.9-1.8,2.9
		c-0.4,1.2-0.7,2.5-0.7,3.8c0,1.4,0.3,2.6,0.7,3.8c0.5,1.2,1.1,2.1,1.8,2.9c0.8,0.8,1.7,1.5,2.7,1.9
		C293.2,20.9,294.4,21.1,295.6,21.1L295.6,21.1z M295.6,23.4c-1.5,0-3.1-0.3-4.5-0.9c-1.4-0.6-2.6-1.4-3.6-2.5
		c-1-1.1-1.9-2.3-2.4-3.7c-0.6-1.5-0.9-3-0.9-4.6c0-3.1,1.2-6,3.3-8.3c1.1-1.1,2.3-1.9,3.6-2.5c1.4-0.7,2.9-0.9,4.5-0.9
		c1.6,0,3.1,0.3,4.5,0.9c1.4,0.6,2.6,1.4,3.7,2.5c1,1.1,1.9,2.3,2.5,3.7c0.6,1.4,0.9,2.9,0.9,4.5c0,1.6-0.3,3.1-0.9,4.6
		c-0.6,1.4-1.4,2.7-2.5,3.7c-1,1.1-2.3,2-3.7,2.5C298.7,23.1,297.2,23.4,295.6,23.4L295.6,23.4z M295.6,23.4">
  </path>
 </g>
</svg>