<svg version="1.1" id="Layer_1" xmlns:x="ns_extend;" xmlns:i="ns_ai;" xmlns:graph="ns_graphs;" xmlns="http://www.w3.org/2000/svg" xmlns:xlink="http://www.w3.org/1999/xlink" x="0px" y="0px" viewBox="0 0 119.2 61" style="enable-background:new 0 0 119.2 61;" xml:space="preserve">
 <style type="text/css">
  .st0{fill:#003468;}
 </style>
 <metadata>
  <sfw xmlns="ns_sfw;">
   <slices>
   </slices>
   <sliceSourceBounds bottomLeftOrigin="true" height="61" width="119.2" x="0" y="0">
   </sliceSourceBounds>
  </sfw>
 </metadata>
 <g>
  <g>
   <path class="st0" d="M59.6,61c32.9,0,59.6-13.7,59.6-30.5S92.6,0,59.6,0C26.7,0,0,13.7,0,30.5C0,47.3,26.6,61,59.6,61z M70.8,46
			c-1,2.3-2.7,7.1-6.6,9.2c-1.2,0.6-2.6,0.9-4,0.9c-0.3,0-0.5,0-0.6,0c-10.1,0.1-20.1-1.3-29.8-4.1l-0.3-0.1
			c-0.8-0.3-1.2-0.6-1.2-1.1c0-0.2,0.1-0.4,0.1-0.5c0.1-0.2,0.2-0.3,0.3-0.4l0.5-0.5c1.9-1.7,7.9-6,19.2-10.2
			c4.6-1.9,9.3-3.3,14.1-4.5C65.6,34,76.8,32.3,70.8,46L70.8,46z M101,15.3c0.1-0.2,0.2-0.4,0.4-0.5c0.2-0.1,0.4-0.2,0.6-0.2
			c0.4,0,0.9,0.1,1.2,0.4c7,4.3,11.2,9.7,11.2,15.5c0,10.5-13.5,19.6-32.9,23.5c-1.2,0.3-2.1,0.2-2.3,0c-0.3-0.2-0.3-0.5,0-0.9
			c0.1-0.3,0.3-0.5,0.5-0.7c10.5-12.4,18.6-30.7,20.8-36C100.7,15.9,100.8,15.5,101,15.3z M48.6,14.9c1-2.3,2.7-7.2,6.6-9.2
			c1.2-0.6,2.6-0.9,4-0.9c0.3,0,0.5,0,0.6,0c10.1-0.1,20.1,1.3,29.8,4.1l0.3,0.1c0.8,0.3,1.2,0.6,1.2,1.1c0,0.2-0.1,0.4-0.1,0.5
			c-0.1,0.2-0.2,0.3-0.3,0.4L90,11.6c-1.9,1.7-7.8,6-19.1,10.3c-4.6,1.9-9.3,3.4-14.1,4.5C53.9,27,42.7,28.7,48.6,14.9z M37.8,7
			c1.3-0.2,2.1-0.2,2.4,0c0.1,0.1,0.1,0.3,0.1,0.5s-0.1,0.3-0.1,0.5c-0.2,0.3-0.3,0.5-0.5,0.7C29.1,21.1,21,39.4,18.8,44.7
			c-0.2,0.4-0.3,0.7-0.5,1c-0.1,0.2-0.2,0.4-0.4,0.5s-0.4,0.2-0.6,0.2c-0.4,0-0.9-0.1-1.2-0.4c-7-4.3-11.2-9.7-11.2-15.5
			C4.9,20,18.4,11,37.8,7z">
   </path>
  </g>
 </g>
</svg>